<mxfile host="app.diagrams.net" modified="2021-05-06T14:35:34.357Z" agent="5.0 (Windows NT 10.0; Win64; x64) AppleWebKit/537.36 (KHTML, like Gecko) Chrome/90.0.4430.93 Safari/537.36" etag="UYJHgBklqMI0CWIpKCqR" version="14.6.6" type="github">
  <diagram id="kgpKYQtTHZ0yAKxKKP6v" name="Page-1">
    <mxGraphModel dx="1673" dy="829" grid="1" gridSize="11" guides="1" tooltips="1" connect="1" arrows="1" fold="1" page="1" pageScale="1" pageWidth="850" pageHeight="1100" math="0" shadow="0">
      <root>
        <mxCell id="0" />
        <mxCell id="1" parent="0" />
        <mxCell id="TzjOciLROZBvNA4ipait-79" value="" style="whiteSpace=wrap;html=1;aspect=fixed;fontSize=9;strokeWidth=1;" vertex="1" parent="1">
          <mxGeometry width="1419" height="1419" as="geometry" />
        </mxCell>
        <mxCell id="TzjOciLROZBvNA4ipait-74" value="&lt;b&gt;&lt;font style=&quot;font-size: 12px&quot;&gt;ALT&lt;/font&gt;&lt;/b&gt;" style="shape=umlFrame;whiteSpace=wrap;html=1;fontSize=9;strokeWidth=1;fillColor=#e6d0de;strokeColor=#996185;gradientColor=#d5739d;" vertex="1" parent="1">
          <mxGeometry x="11" y="264" width="1331" height="386" as="geometry" />
        </mxCell>
        <mxCell id="TzjOciLROZBvNA4ipait-78" value="&lt;b&gt;&lt;font style=&quot;font-size: 11px&quot;&gt;ALT&lt;/font&gt;&lt;/b&gt;" style="shape=umlFrame;whiteSpace=wrap;html=1;fontSize=9;strokeWidth=1;fillColor=#b1ddf0;strokeColor=#10739e;" vertex="1" parent="1">
          <mxGeometry x="88" y="264" width="803" height="231" as="geometry" />
        </mxCell>
        <mxCell id="TzjOciLROZBvNA4ipait-77" value="&lt;b&gt;&lt;font style=&quot;font-size: 11px&quot;&gt;ALT&lt;/font&gt;&lt;/b&gt;" style="shape=umlFrame;whiteSpace=wrap;html=1;fontSize=9;strokeWidth=1;fillColor=#fad7ac;strokeColor=#b46504;" vertex="1" parent="1">
          <mxGeometry x="88" y="154" width="572" height="99" as="geometry" />
        </mxCell>
        <mxCell id="3nuBFxr9cyL0pnOWT2aG-5" value="System" style="shape=umlLifeline;perimeter=lifelinePerimeter;container=1;collapsible=0;recursiveResize=0;rounded=0;shadow=0;strokeWidth=1;size=38;gradientColor=#b3b3b3;fillColor=#f5f5f5;strokeColor=#666666;" parent="1" vertex="1">
          <mxGeometry x="528" y="90" width="220" height="1056" as="geometry" />
        </mxCell>
        <mxCell id="3nuBFxr9cyL0pnOWT2aG-6" value="" style="points=[];perimeter=orthogonalPerimeter;rounded=0;shadow=0;strokeWidth=1;" parent="3nuBFxr9cyL0pnOWT2aG-5" vertex="1">
          <mxGeometry x="105" y="80" width="10" height="96" as="geometry" />
        </mxCell>
        <mxCell id="TzjOciLROZBvNA4ipait-57" value="&lt;b&gt;&lt;font style=&quot;font-size: 11px&quot;&gt;Lancher les taches souhaitée&lt;/font&gt;&lt;/b&gt;" style="text;html=1;strokeColor=none;fillColor=none;align=center;verticalAlign=middle;whiteSpace=wrap;rounded=0;fontSize=9;" vertex="1" parent="3nuBFxr9cyL0pnOWT2aG-5">
          <mxGeometry y="427" width="220" height="20" as="geometry" />
        </mxCell>
        <mxCell id="TzjOciLROZBvNA4ipait-66" value="" style="points=[];perimeter=orthogonalPerimeter;rounded=0;shadow=0;strokeWidth=1;" vertex="1" parent="3nuBFxr9cyL0pnOWT2aG-5">
          <mxGeometry x="105" y="581" width="10" height="96" as="geometry" />
        </mxCell>
        <mxCell id="3nuBFxr9cyL0pnOWT2aG-8" value="s&#39;authentifier" style="verticalAlign=bottom;endArrow=block;shadow=0;strokeWidth=1;exitX=1;exitY=0;exitDx=0;exitDy=0;" parent="1" target="3nuBFxr9cyL0pnOWT2aG-5" edge="1">
          <mxGeometry relative="1" as="geometry">
            <mxPoint x="169.99999999999977" y="180" as="sourcePoint" />
            <mxPoint x="616" y="170" as="targetPoint" />
          </mxGeometry>
        </mxCell>
        <mxCell id="3nuBFxr9cyL0pnOWT2aG-9" value="erreur d&#39;authentification" style="verticalAlign=bottom;endArrow=block;shadow=0;strokeWidth=1;fontSize=9;labelBackgroundColor=none;fontStyle=1;exitX=-0.083;exitY=0.307;exitDx=0;exitDy=0;exitPerimeter=0;entryX=1.003;entryY=0.025;entryDx=0;entryDy=0;entryPerimeter=0;" parent="1" source="3nuBFxr9cyL0pnOWT2aG-6" target="TzjOciLROZBvNA4ipait-4" edge="1">
          <mxGeometry relative="1" as="geometry">
            <mxPoint x="616" y="199" as="sourcePoint" />
            <mxPoint x="187" y="199" as="targetPoint" />
          </mxGeometry>
        </mxCell>
        <mxCell id="TzjOciLROZBvNA4ipait-1" value="&lt;b&gt;&lt;font style=&quot;font-size: 13px&quot;&gt;Developpeur&lt;/font&gt;&lt;/b&gt;" style="shape=umlActor;verticalLabelPosition=bottom;verticalAlign=top;html=1;outlineConnect=0;" vertex="1" parent="1">
          <mxGeometry x="150" y="40" width="30" height="60" as="geometry" />
        </mxCell>
        <mxCell id="TzjOciLROZBvNA4ipait-7" value="" style="endArrow=none;dashed=1;html=1;dashPattern=1 3;strokeWidth=2;entryX=0.5;entryY=0.5;entryDx=0;entryDy=0;entryPerimeter=0;startArrow=none;" edge="1" parent="1" source="TzjOciLROZBvNA4ipait-4" target="TzjOciLROZBvNA4ipait-1">
          <mxGeometry width="50" height="50" relative="1" as="geometry">
            <mxPoint x="160" y="450" as="sourcePoint" />
            <mxPoint x="90" y="210" as="targetPoint" />
          </mxGeometry>
        </mxCell>
        <mxCell id="TzjOciLROZBvNA4ipait-4" value="" style="points=[];perimeter=orthogonalPerimeter;rounded=0;shadow=0;strokeWidth=1;" vertex="1" parent="1">
          <mxGeometry x="160" y="170" width="10" height="1150" as="geometry" />
        </mxCell>
        <mxCell id="TzjOciLROZBvNA4ipait-8" value="" style="endArrow=none;dashed=1;html=1;dashPattern=1 3;strokeWidth=2;entryX=0.5;entryY=0.5;entryDx=0;entryDy=0;entryPerimeter=0;" edge="1" parent="1" target="TzjOciLROZBvNA4ipait-4">
          <mxGeometry width="50" height="50" relative="1" as="geometry">
            <mxPoint x="165" y="1144" as="sourcePoint" />
            <mxPoint x="165" y="70" as="targetPoint" />
          </mxGeometry>
        </mxCell>
        <mxCell id="TzjOciLROZBvNA4ipait-14" value="" style="endArrow=none;html=1;entryX=1.004;entryY=0.678;entryDx=0;entryDy=0;entryPerimeter=0;fillColor=#fad7ac;strokeColor=#b46504;" edge="1" parent="1" target="TzjOciLROZBvNA4ipait-77">
          <mxGeometry width="50" height="50" relative="1" as="geometry">
            <mxPoint x="89" y="220" as="sourcePoint" />
            <mxPoint x="648.9999999999998" y="220" as="targetPoint" />
            <Array as="points" />
          </mxGeometry>
        </mxCell>
        <mxCell id="TzjOciLROZBvNA4ipait-15" value="" style="endArrow=classic;html=1;fontSize=9;exitX=0.055;exitY=0.731;exitDx=0;exitDy=0;exitPerimeter=0;" edge="1" parent="1" source="3nuBFxr9cyL0pnOWT2aG-6" target="TzjOciLROZBvNA4ipait-4">
          <mxGeometry width="50" height="50" relative="1" as="geometry">
            <mxPoint x="616" y="241" as="sourcePoint" />
            <mxPoint x="187" y="241" as="targetPoint" />
          </mxGeometry>
        </mxCell>
        <mxCell id="TzjOciLROZBvNA4ipait-16" value="&lt;b&gt;Bienvenue sur lapp&lt;/b&gt;" style="text;html=1;strokeColor=none;fillColor=none;align=center;verticalAlign=middle;whiteSpace=wrap;rounded=0;fontSize=9;" vertex="1" parent="1">
          <mxGeometry x="352" y="231" width="111" as="geometry" />
        </mxCell>
        <mxCell id="TzjOciLROZBvNA4ipait-17" value="Gitlab" style="shape=umlLifeline;perimeter=lifelinePerimeter;container=1;collapsible=0;recursiveResize=0;rounded=0;shadow=0;strokeWidth=1;gradientColor=#7ea6e0;fillColor=#dae8fc;strokeColor=#6c8ebf;" vertex="1" parent="1">
          <mxGeometry x="792" y="90" width="100" height="944" as="geometry" />
        </mxCell>
        <mxCell id="TzjOciLROZBvNA4ipait-18" value="" style="points=[];perimeter=orthogonalPerimeter;rounded=0;shadow=0;strokeWidth=1;" vertex="1" parent="TzjOciLROZBvNA4ipait-17">
          <mxGeometry x="45" y="80" width="10" height="822" as="geometry" />
        </mxCell>
        <mxCell id="TzjOciLROZBvNA4ipait-19" value="Jenkins" style="shape=umlLifeline;perimeter=lifelinePerimeter;container=1;collapsible=0;recursiveResize=0;rounded=0;shadow=0;strokeWidth=1;gradientColor=#97d077;fillColor=#d5e8d4;strokeColor=#82b366;" vertex="1" parent="1">
          <mxGeometry x="1001" y="90" width="100" height="1232" as="geometry" />
        </mxCell>
        <mxCell id="TzjOciLROZBvNA4ipait-20" value="" style="points=[];perimeter=orthogonalPerimeter;rounded=0;shadow=0;strokeWidth=1;" vertex="1" parent="TzjOciLROZBvNA4ipait-19">
          <mxGeometry x="45" y="80" width="10" height="1152" as="geometry" />
        </mxCell>
        <mxCell id="TzjOciLROZBvNA4ipait-21" value="Sonarqube" style="shape=umlLifeline;perimeter=lifelinePerimeter;container=1;collapsible=0;recursiveResize=0;rounded=0;shadow=0;strokeWidth=1;gradientColor=#ffd966;fillColor=#fff2cc;strokeColor=#d6b656;" vertex="1" parent="1">
          <mxGeometry x="1199" y="90" width="100" height="1043" as="geometry" />
        </mxCell>
        <mxCell id="TzjOciLROZBvNA4ipait-22" value="" style="points=[];perimeter=orthogonalPerimeter;rounded=0;shadow=0;strokeWidth=1;" vertex="1" parent="TzjOciLROZBvNA4ipait-21">
          <mxGeometry x="45" y="80" width="10" height="822" as="geometry" />
        </mxCell>
        <mxCell id="TzjOciLROZBvNA4ipait-28" value="" style="endArrow=none;html=1;labelBackgroundColor=#9999FF;fontSize=9;exitX=0;exitY=0.525;exitDx=0;exitDy=0;exitPerimeter=0;fillColor=#b1ddf0;strokeColor=#10739e;entryX=0.999;entryY=0.522;entryDx=0;entryDy=0;entryPerimeter=0;" edge="1" parent="1" source="TzjOciLROZBvNA4ipait-78" target="TzjOciLROZBvNA4ipait-78">
          <mxGeometry width="50" height="50" relative="1" as="geometry">
            <mxPoint x="308" y="369" as="sourcePoint" />
            <mxPoint x="358" y="319" as="targetPoint" />
          </mxGeometry>
        </mxCell>
        <mxCell id="TzjOciLROZBvNA4ipait-29" value="code bien enregistré" style="verticalAlign=bottom;endArrow=open;dashed=1;endSize=8;shadow=0;strokeWidth=1;labelBackgroundColor=none;fontStyle=1;exitX=0.062;exitY=0.169;exitDx=0;exitDy=0;exitPerimeter=0;entryX=0.934;entryY=0.119;entryDx=0;entryDy=0;entryPerimeter=0;" edge="1" parent="1" source="TzjOciLROZBvNA4ipait-18" target="TzjOciLROZBvNA4ipait-4">
          <mxGeometry x="0.1241" y="-1" relative="1" as="geometry">
            <mxPoint x="176" y="309" as="targetPoint" />
            <mxPoint x="814" y="309" as="sourcePoint" />
            <mxPoint as="offset" />
          </mxGeometry>
        </mxCell>
        <mxCell id="TzjOciLROZBvNA4ipait-41" value="ajouter le code source" style="verticalAlign=bottom;endArrow=open;dashed=1;endSize=8;shadow=0;strokeWidth=1;labelBackgroundColor=none;fontStyle=1;entryX=0.131;entryY=0.142;entryDx=0;entryDy=0;entryPerimeter=0;exitX=1.003;exitY=0.102;exitDx=0;exitDy=0;exitPerimeter=0;" edge="1" parent="1" source="TzjOciLROZBvNA4ipait-4" target="TzjOciLROZBvNA4ipait-18">
          <mxGeometry x="-0.1248" relative="1" as="geometry">
            <mxPoint x="814" y="286" as="targetPoint" />
            <mxPoint x="187" y="287" as="sourcePoint" />
            <mxPoint as="offset" />
          </mxGeometry>
        </mxCell>
        <mxCell id="TzjOciLROZBvNA4ipait-43" value="modification  bien enregistré" style="verticalAlign=bottom;endArrow=open;dashed=1;endSize=8;shadow=0;strokeWidth=1;labelBackgroundColor=none;fontStyle=1;entryX=1.072;entryY=0.176;entryDx=0;entryDy=0;entryPerimeter=0;" edge="1" parent="1" target="TzjOciLROZBvNA4ipait-4">
          <mxGeometry x="0.0932" relative="1" as="geometry">
            <mxPoint x="187" y="375" as="targetPoint" />
            <mxPoint x="838" y="375" as="sourcePoint" />
            <mxPoint as="offset" />
          </mxGeometry>
        </mxCell>
        <mxCell id="TzjOciLROZBvNA4ipait-44" value="Modifier le code source" style="verticalAlign=bottom;endArrow=open;dashed=1;endSize=8;shadow=0;strokeWidth=1;labelBackgroundColor=none;fontStyle=1;entryX=0.062;entryY=0.22;entryDx=0;entryDy=0;entryPerimeter=0;exitX=1.003;exitY=0.157;exitDx=0;exitDy=0;exitPerimeter=0;" edge="1" parent="1" source="TzjOciLROZBvNA4ipait-4" target="TzjOciLROZBvNA4ipait-18">
          <mxGeometry x="-0.1573" relative="1" as="geometry">
            <mxPoint x="803" y="352" as="targetPoint" />
            <mxPoint x="176" y="351" as="sourcePoint" />
            <mxPoint as="offset" />
          </mxGeometry>
        </mxCell>
        <mxCell id="TzjOciLROZBvNA4ipait-46" value="" style="endArrow=none;html=1;labelBackgroundColor=#9999FF;fontSize=9;entryX=1;entryY=0.294;entryDx=0;entryDy=0;entryPerimeter=0;fillColor=#b1ddf0;strokeColor=#10739e;" edge="1" parent="1" target="TzjOciLROZBvNA4ipait-78">
          <mxGeometry width="50" height="50" relative="1" as="geometry">
            <mxPoint x="88" y="332" as="sourcePoint" />
            <mxPoint x="825" y="332" as="targetPoint" />
          </mxGeometry>
        </mxCell>
        <mxCell id="TzjOciLROZBvNA4ipait-52" value="suppression  bien enregistré" style="verticalAlign=bottom;endArrow=open;dashed=1;endSize=8;shadow=0;strokeWidth=1;labelBackgroundColor=none;fontStyle=1;entryX=1.072;entryY=0.176;entryDx=0;entryDy=0;entryPerimeter=0;" edge="1" parent="1">
          <mxGeometry x="0.0589" y="-1" relative="1" as="geometry">
            <mxPoint x="170.00000000000003" y="439.9999999999999" as="targetPoint" />
            <mxPoint x="837.2799999999997" y="442.60000000000014" as="sourcePoint" />
            <mxPoint as="offset" />
          </mxGeometry>
        </mxCell>
        <mxCell id="TzjOciLROZBvNA4ipait-53" value="supprimer le code source" style="verticalAlign=bottom;endArrow=open;dashed=1;endSize=8;shadow=0;strokeWidth=1;labelBackgroundColor=none;fontStyle=1;entryX=0.062;entryY=0.22;entryDx=0;entryDy=0;entryPerimeter=0;exitX=1.003;exitY=0.157;exitDx=0;exitDy=0;exitPerimeter=0;" edge="1" parent="1">
          <mxGeometry x="-0.1252" relative="1" as="geometry">
            <mxPoint x="837.5899999999999" y="407.2899999999999" as="targetPoint" />
            <mxPoint x="169.99999999999997" y="406.99999999999994" as="sourcePoint" />
            <mxPoint as="offset" />
          </mxGeometry>
        </mxCell>
        <mxCell id="TzjOciLROZBvNA4ipait-55" style="edgeStyle=orthogonalEdgeStyle;rounded=0;orthogonalLoop=1;jettySize=auto;html=1;exitX=0.5;exitY=1;exitDx=0;exitDy=0;labelBackgroundColor=none;fontSize=9;" edge="1" parent="1">
          <mxGeometry relative="1" as="geometry">
            <mxPoint x="494.9999999999998" y="483" as="sourcePoint" />
            <mxPoint x="494.9999999999998" y="483" as="targetPoint" />
          </mxGeometry>
        </mxCell>
        <mxCell id="TzjOciLROZBvNA4ipait-56" value="" style="endArrow=classic;html=1;labelBackgroundColor=none;fontSize=9;exitX=1.083;exitY=0.318;exitDx=0;exitDy=0;exitPerimeter=0;entryX=-0.1;entryY=0.32;entryDx=0;entryDy=0;entryPerimeter=0;" edge="1" parent="1" source="TzjOciLROZBvNA4ipait-4" target="TzjOciLROZBvNA4ipait-20">
          <mxGeometry width="50" height="50" relative="1" as="geometry">
            <mxPoint x="363" y="622" as="sourcePoint" />
            <mxPoint x="413" y="572" as="targetPoint" />
          </mxGeometry>
        </mxCell>
        <mxCell id="TzjOciLROZBvNA4ipait-58" value="" style="endArrow=classic;html=1;labelBackgroundColor=none;fontSize=9;exitX=-0.267;exitY=0.348;exitDx=0;exitDy=0;exitPerimeter=0;entryX=1.083;entryY=0.349;entryDx=0;entryDy=0;entryPerimeter=0;" edge="1" parent="1" source="TzjOciLROZBvNA4ipait-20" target="TzjOciLROZBvNA4ipait-4">
          <mxGeometry relative="1" as="geometry">
            <mxPoint x="330" y="594" as="sourcePoint" />
            <mxPoint x="490" y="594" as="targetPoint" />
          </mxGeometry>
        </mxCell>
        <mxCell id="TzjOciLROZBvNA4ipait-59" value="&lt;b&gt;Tache bien&amp;nbsp;exécutée&lt;/b&gt;" style="edgeLabel;resizable=0;html=1;align=center;verticalAlign=middle;" connectable="0" vertex="1" parent="TzjOciLROZBvNA4ipait-58">
          <mxGeometry relative="1" as="geometry" />
        </mxCell>
        <mxCell id="TzjOciLROZBvNA4ipait-61" value="" style="endArrow=classic;html=1;labelBackgroundColor=none;fontSize=9;" edge="1" parent="1" target="TzjOciLROZBvNA4ipait-21">
          <mxGeometry relative="1" as="geometry">
            <mxPoint x="170" y="617.5" as="sourcePoint" />
            <mxPoint x="330" y="617.5" as="targetPoint" />
          </mxGeometry>
        </mxCell>
        <mxCell id="TzjOciLROZBvNA4ipait-62" value="&lt;b&gt;Consulter la qualité du code source&lt;/b&gt;" style="edgeLabel;resizable=0;html=1;align=center;verticalAlign=middle;" connectable="0" vertex="1" parent="TzjOciLROZBvNA4ipait-61">
          <mxGeometry relative="1" as="geometry" />
        </mxCell>
        <mxCell id="TzjOciLROZBvNA4ipait-64" value="" style="endArrow=classic;html=1;labelBackgroundColor=none;fontSize=9;entryX=0.171;entryY=0.259;entryDx=0;entryDy=0;entryPerimeter=0;" edge="1" parent="1" source="TzjOciLROZBvNA4ipait-4" target="TzjOciLROZBvNA4ipait-66">
          <mxGeometry width="50" height="50" relative="1" as="geometry">
            <mxPoint x="429" y="743" as="sourcePoint" />
            <mxPoint x="479" y="693" as="targetPoint" />
          </mxGeometry>
        </mxCell>
        <mxCell id="TzjOciLROZBvNA4ipait-67" value="" style="endArrow=classic;html=1;labelBackgroundColor=none;fontSize=9;entryX=1.1;entryY=0.483;entryDx=0;entryDy=0;entryPerimeter=0;exitX=0.029;exitY=0.568;exitDx=0;exitDy=0;exitPerimeter=0;" edge="1" parent="1" source="TzjOciLROZBvNA4ipait-66" target="TzjOciLROZBvNA4ipait-4">
          <mxGeometry relative="1" as="geometry">
            <mxPoint x="627" y="725" as="sourcePoint" />
            <mxPoint x="501" y="726" as="targetPoint" />
            <Array as="points">
              <mxPoint x="407" y="725" />
            </Array>
          </mxGeometry>
        </mxCell>
        <mxCell id="TzjOciLROZBvNA4ipait-68" value="&lt;b&gt;Page d&#39;authentification&lt;/b&gt;" style="edgeLabel;resizable=0;html=1;align=center;verticalAlign=middle;" connectable="0" vertex="1" parent="TzjOciLROZBvNA4ipait-67">
          <mxGeometry relative="1" as="geometry" />
        </mxCell>
        <mxCell id="TzjOciLROZBvNA4ipait-70" value="&lt;b&gt;&lt;font style=&quot;font-size: 11px&quot;&gt;Quitté la session&lt;/font&gt;&lt;/b&gt;" style="text;html=1;strokeColor=none;fillColor=none;align=center;verticalAlign=middle;whiteSpace=wrap;rounded=0;fontSize=9;" vertex="1" parent="1">
          <mxGeometry x="388" y="671" width="96" height="20" as="geometry" />
        </mxCell>
        <mxCell id="TzjOciLROZBvNA4ipait-75" value="" style="line;strokeWidth=2;html=1;fontSize=9;fillColor=#e6d0de;strokeColor=#996185;gradientColor=#d5739d;" vertex="1" parent="1">
          <mxGeometry x="10" y="495" width="1332" height="10" as="geometry" />
        </mxCell>
        <mxCell id="TzjOciLROZBvNA4ipait-76" value="" style="line;strokeWidth=2;html=1;fontSize=9;fillColor=#e6d0de;strokeColor=#996185;gradientColor=#d5739d;" vertex="1" parent="1">
          <mxGeometry x="10" y="583" width="1332" height="10" as="geometry" />
        </mxCell>
      </root>
    </mxGraphModel>
  </diagram>
</mxfile>
